<mxfile host="Electron" agent="Mozilla/5.0 (Windows NT 10.0; Win64; x64) AppleWebKit/537.36 (KHTML, like Gecko) draw.io/26.2.2 Chrome/134.0.6998.178 Electron/35.1.2 Safari/537.36" version="26.2.2">
  <diagram name="Página-1" id="eqjOnO7Gvo-85zCGQlQS">
    <mxGraphModel dx="1098" dy="771" grid="1" gridSize="10" guides="1" tooltips="1" connect="1" arrows="1" fold="1" page="1" pageScale="1" pageWidth="827" pageHeight="1169" math="0" shadow="0">
      <root>
        <mxCell id="0" />
        <mxCell id="1" parent="0" />
        <mxCell id="boX53UYX1-WF3tNRa1Cb-1" value="Inicio" style="whiteSpace=wrap;strokeWidth=2;" vertex="1" parent="1">
          <mxGeometry x="335.5" y="80" width="99" height="54" as="geometry" />
        </mxCell>
        <mxCell id="boX53UYX1-WF3tNRa1Cb-2" value="Iniciar consumidores Kafka por router" style="whiteSpace=wrap;strokeWidth=2;" vertex="1" parent="1">
          <mxGeometry x="255" y="190" width="260" height="78" as="geometry" />
        </mxCell>
        <mxCell id="boX53UYX1-WF3tNRa1Cb-3" value="Inicio bucle cálculo de rutas cada 5s" style="whiteSpace=wrap;strokeWidth=2;" vertex="1" parent="1">
          <mxGeometry x="488" y="347" width="260" height="78" as="geometry" />
        </mxCell>
        <mxCell id="boX53UYX1-WF3tNRa1Cb-4" value="Recibir métricas del router por Kafka" style="whiteSpace=wrap;strokeWidth=2;" vertex="1" parent="1">
          <mxGeometry x="55" y="347" width="260" height="78" as="geometry" />
        </mxCell>
        <mxCell id="boX53UYX1-WF3tNRa1Cb-5" value="Actualizar estado interno del router" style="whiteSpace=wrap;strokeWidth=2;" vertex="1" parent="1">
          <mxGeometry x="55" y="475" width="260" height="78" as="geometry" />
        </mxCell>
        <mxCell id="boX53UYX1-WF3tNRa1Cb-6" value="Cargar topología desde final_output.json" style="whiteSpace=wrap;strokeWidth=2;" vertex="1" parent="1">
          <mxGeometry x="395" y="475" width="260" height="78" as="geometry" />
        </mxCell>
        <mxCell id="boX53UYX1-WF3tNRa1Cb-7" value="Leer flujos actuales desde Minio" style="whiteSpace=wrap;strokeWidth=2;" vertex="1" parent="1">
          <mxGeometry x="395" y="628" width="260" height="78" as="geometry" />
        </mxCell>
        <mxCell id="boX53UYX1-WF3tNRa1Cb-8" value="Eliminar nodos inactivos según timeout 15s" style="whiteSpace=wrap;strokeWidth=2;" vertex="1" parent="1">
          <mxGeometry x="395" y="756" width="260" height="78" as="geometry" />
        </mxCell>
        <mxCell id="boX53UYX1-WF3tNRa1Cb-9" value="Actualizar costes en grafo con NetworkX" style="whiteSpace=wrap;strokeWidth=2;" vertex="1" parent="1">
          <mxGeometry x="395" y="884" width="260" height="78" as="geometry" />
        </mxCell>
        <mxCell id="boX53UYX1-WF3tNRa1Cb-10" value="¿Hay flujos sin ruta o afectados por routers caídos?" style="rhombus;strokeWidth=2;whiteSpace=wrap;" vertex="1" parent="1">
          <mxGeometry x="374" y="1012" width="302" height="302" as="geometry" />
        </mxCell>
        <mxCell id="boX53UYX1-WF3tNRa1Cb-11" value="Recalcular rutas óptimas con NetworkX" style="whiteSpace=wrap;strokeWidth=2;" vertex="1" parent="1">
          <mxGeometry x="307" y="1386" width="260" height="78" as="geometry" />
        </mxCell>
        <mxCell id="boX53UYX1-WF3tNRa1Cb-12" value="Ejecutar tunnelmaker.py para aplicar rutas actualizadas" style="whiteSpace=wrap;strokeWidth=2;" vertex="1" parent="1">
          <mxGeometry x="307" y="1514" width="260" height="102" as="geometry" />
        </mxCell>
        <mxCell id="boX53UYX1-WF3tNRa1Cb-13" value="Actualizar flujos en Minio" style="whiteSpace=wrap;strokeWidth=2;" vertex="1" parent="1">
          <mxGeometry x="316" y="1666" width="242" height="54" as="geometry" />
        </mxCell>
        <mxCell id="boX53UYX1-WF3tNRa1Cb-14" value="Esperar 5 segundos" style="whiteSpace=wrap;strokeWidth=2;" vertex="1" parent="1">
          <mxGeometry x="515" y="1770" width="196" height="54" as="geometry" />
        </mxCell>
        <mxCell id="boX53UYX1-WF3tNRa1Cb-15" value="" style="curved=1;startArrow=none;endArrow=block;exitX=0.49;exitY=1;entryX=0.5;entryY=0;rounded=0;" edge="1" parent="1" source="boX53UYX1-WF3tNRa1Cb-1" target="boX53UYX1-WF3tNRa1Cb-2">
          <mxGeometry relative="1" as="geometry">
            <Array as="points" />
          </mxGeometry>
        </mxCell>
        <mxCell id="boX53UYX1-WF3tNRa1Cb-16" value="" style="curved=1;startArrow=none;endArrow=block;exitX=0.67;exitY=1;entryX=0.5;entryY=0;rounded=0;entryDx=0;entryDy=0;" edge="1" parent="1" source="boX53UYX1-WF3tNRa1Cb-2" target="boX53UYX1-WF3tNRa1Cb-3">
          <mxGeometry relative="1" as="geometry">
            <Array as="points">
              <mxPoint x="620" y="320" />
            </Array>
          </mxGeometry>
        </mxCell>
        <mxCell id="boX53UYX1-WF3tNRa1Cb-17" value="" style="curved=1;startArrow=none;endArrow=block;exitX=0.48;exitY=1;entryX=0.5;entryY=0;rounded=0;" edge="1" parent="1" source="boX53UYX1-WF3tNRa1Cb-2" target="boX53UYX1-WF3tNRa1Cb-4">
          <mxGeometry relative="1" as="geometry">
            <Array as="points">
              <mxPoint x="185" y="322" />
            </Array>
          </mxGeometry>
        </mxCell>
        <mxCell id="boX53UYX1-WF3tNRa1Cb-18" value="" style="curved=1;startArrow=none;endArrow=block;exitX=0.33;exitY=1;entryX=0.33;entryY=0;rounded=0;" edge="1" parent="1" source="boX53UYX1-WF3tNRa1Cb-4" target="boX53UYX1-WF3tNRa1Cb-5">
          <mxGeometry relative="1" as="geometry">
            <Array as="points">
              <mxPoint x="113" y="450" />
            </Array>
          </mxGeometry>
        </mxCell>
        <mxCell id="boX53UYX1-WF3tNRa1Cb-19" value="" style="curved=1;startArrow=none;endArrow=block;exitX=0.67;exitY=0;entryX=0.67;entryY=1;rounded=0;" edge="1" parent="1" source="boX53UYX1-WF3tNRa1Cb-5" target="boX53UYX1-WF3tNRa1Cb-4">
          <mxGeometry relative="1" as="geometry">
            <Array as="points">
              <mxPoint x="258" y="450" />
            </Array>
          </mxGeometry>
        </mxCell>
        <mxCell id="boX53UYX1-WF3tNRa1Cb-20" value="" style="curved=1;startArrow=none;endArrow=block;exitX=0.28;exitY=1;entryX=0.5;entryY=0;rounded=0;" edge="1" parent="1" source="boX53UYX1-WF3tNRa1Cb-3" target="boX53UYX1-WF3tNRa1Cb-6">
          <mxGeometry relative="1" as="geometry">
            <Array as="points">
              <mxPoint x="525" y="450" />
            </Array>
          </mxGeometry>
        </mxCell>
        <mxCell id="boX53UYX1-WF3tNRa1Cb-21" value="" style="curved=1;startArrow=none;endArrow=block;exitX=0.5;exitY=1;entryX=0.5;entryY=0;rounded=0;" edge="1" parent="1" source="boX53UYX1-WF3tNRa1Cb-6" target="boX53UYX1-WF3tNRa1Cb-7">
          <mxGeometry relative="1" as="geometry">
            <Array as="points" />
          </mxGeometry>
        </mxCell>
        <mxCell id="boX53UYX1-WF3tNRa1Cb-22" value="" style="curved=1;startArrow=none;endArrow=block;exitX=0.5;exitY=1;entryX=0.5;entryY=0;rounded=0;" edge="1" parent="1" source="boX53UYX1-WF3tNRa1Cb-7" target="boX53UYX1-WF3tNRa1Cb-8">
          <mxGeometry relative="1" as="geometry">
            <Array as="points" />
          </mxGeometry>
        </mxCell>
        <mxCell id="boX53UYX1-WF3tNRa1Cb-23" value="" style="curved=1;startArrow=none;endArrow=block;exitX=0.5;exitY=1;entryX=0.5;entryY=0;rounded=0;" edge="1" parent="1" source="boX53UYX1-WF3tNRa1Cb-8" target="boX53UYX1-WF3tNRa1Cb-9">
          <mxGeometry relative="1" as="geometry">
            <Array as="points" />
          </mxGeometry>
        </mxCell>
        <mxCell id="boX53UYX1-WF3tNRa1Cb-24" value="" style="curved=1;startArrow=none;endArrow=block;exitX=0.5;exitY=1;entryX=0.5;entryY=0;rounded=0;" edge="1" parent="1" source="boX53UYX1-WF3tNRa1Cb-9" target="boX53UYX1-WF3tNRa1Cb-10">
          <mxGeometry relative="1" as="geometry">
            <Array as="points" />
          </mxGeometry>
        </mxCell>
        <mxCell id="boX53UYX1-WF3tNRa1Cb-25" value="Sí" style="curved=1;startArrow=none;endArrow=block;exitX=0.26;exitY=1;entryX=0.5;entryY=0.01;rounded=0;" edge="1" parent="1" source="boX53UYX1-WF3tNRa1Cb-10" target="boX53UYX1-WF3tNRa1Cb-11">
          <mxGeometry relative="1" as="geometry">
            <Array as="points">
              <mxPoint x="437" y="1350" />
            </Array>
          </mxGeometry>
        </mxCell>
        <mxCell id="boX53UYX1-WF3tNRa1Cb-26" value="" style="curved=1;startArrow=none;endArrow=block;exitX=0.5;exitY=1.01;entryX=0.5;entryY=0;rounded=0;" edge="1" parent="1" source="boX53UYX1-WF3tNRa1Cb-11" target="boX53UYX1-WF3tNRa1Cb-12">
          <mxGeometry relative="1" as="geometry">
            <Array as="points" />
          </mxGeometry>
        </mxCell>
        <mxCell id="boX53UYX1-WF3tNRa1Cb-27" value="" style="curved=1;startArrow=none;endArrow=block;exitX=0.5;exitY=1;entryX=0.5;entryY=0.01;rounded=0;" edge="1" parent="1" source="boX53UYX1-WF3tNRa1Cb-12" target="boX53UYX1-WF3tNRa1Cb-13">
          <mxGeometry relative="1" as="geometry">
            <Array as="points" />
          </mxGeometry>
        </mxCell>
        <mxCell id="boX53UYX1-WF3tNRa1Cb-28" value="" style="curved=1;startArrow=none;endArrow=block;exitX=0.5;exitY=1.01;entryX=0.03;entryY=0.01;rounded=0;" edge="1" parent="1" source="boX53UYX1-WF3tNRa1Cb-13" target="boX53UYX1-WF3tNRa1Cb-14">
          <mxGeometry relative="1" as="geometry">
            <Array as="points">
              <mxPoint x="437" y="1745" />
            </Array>
          </mxGeometry>
        </mxCell>
        <mxCell id="boX53UYX1-WF3tNRa1Cb-29" value="No" style="curved=1;startArrow=none;endArrow=block;exitX=0.74;exitY=1;entryX=0.5;entryY=0.01;rounded=0;" edge="1" parent="1" source="boX53UYX1-WF3tNRa1Cb-10" target="boX53UYX1-WF3tNRa1Cb-14">
          <mxGeometry relative="1" as="geometry">
            <Array as="points">
              <mxPoint x="613" y="1350" />
            </Array>
          </mxGeometry>
        </mxCell>
        <mxCell id="boX53UYX1-WF3tNRa1Cb-30" value="" style="curved=1;startArrow=none;endArrow=block;exitX=0.79;exitY=0.01;entryX=0.74;entryY=1;rounded=0;" edge="1" parent="1" source="boX53UYX1-WF3tNRa1Cb-14" target="boX53UYX1-WF3tNRa1Cb-3">
          <mxGeometry relative="1" as="geometry">
            <Array as="points">
              <mxPoint x="722" y="1745" />
              <mxPoint x="722" y="450" />
            </Array>
          </mxGeometry>
        </mxCell>
      </root>
    </mxGraphModel>
  </diagram>
</mxfile>
